<?xml version="1.0" standalone="no"?>
<!DOCTYPE svg PUBLIC "-//W3C//DTD SVG 20010904//EN"
 "http://www.w3.org/TR/2001/REC-SVG-20010904/DTD/svg10.dtd">
<svg version="1.0" xmlns="http://www.w3.org/2000/svg"
 width="176.267826pt" height="171.969809pt" viewBox="0 0 176.267826 171.969809"
 preserveAspectRatio="xMidYMid meet">
<metadata>
Created by potrace 1.12, written by Peter Selinger 2001-2015
</metadata>
<g transform="translate(-5.225174,181.972772) scale(0.100000,-0.100000)"
fill="#f4f4f4" stroke="none">
<path d="M1251 1804 c-160 -43 -257 -136 -297 -288 -27 -99 -10 -235 38 -315
170 -286 630 -274 778 20 79 155 52 343 -66 469 -102 109 -293 157 -453 114z
m186 -225 c38 -14 71 -46 95 -93 30 -58 22 -150 -16 -201 -41 -54 -82 -75
-144 -75 -66 0 -110 18 -145 59 -77 91 -51 247 50 300 42 22 116 27 160 10z"/>
<path d="M100 1385 l0 -405 143 0 c78 0 247 3 375 7 l232 6 0 119 0 118 -245
0 -245 0 0 280 0 280 -130 0 -130 0 0 -405z"/>
<path d="M375 916 c-217 -53 -353 -254 -317 -468 44 -256 272 -396 542 -332
36 8 83 26 106 39 110 64 187 211 196 375 l3 55 -212 3 -213 2 0 -105 0 -105
81 0 c89 0 97 -9 40 -47 -76 -51 -178 -39 -247 31 -91 90 -82 238 19 320 30
24 49 31 97 34 73 5 109 -8 152 -56 l31 -36 94 49 c51 27 93 52 93 55 0 3 -16
26 -35 52 -88 120 -264 175 -430 134z"/>
<path d="M1251 914 c-81 -22 -147 -62 -206 -126 -145 -157 -139 -415 14 -568
57 -57 108 -85 193 -105 219 -52 428 32 517 207 81 161 53 352 -70 479 -106
108 -291 155 -448 113z m220 -249 c92 -60 105 -234 23 -307 -120 -106 -314
-19 -314 141 0 155 165 248 291 166z"/>
</g>
</svg>
