<?xml version="1.0" standalone="no"?>
<!DOCTYPE svg PUBLIC "-//W3C//DTD SVG 20010904//EN"
 "http://www.w3.org/TR/2001/REC-SVG-20010904/DTD/svg10.dtd">
<svg version="1.0" xmlns="http://www.w3.org/2000/svg"
 width="114.000000pt" height="124.000000pt" viewBox="0 0 114.000000 124.000000"
 preserveAspectRatio="xMidYMid meet">

<g transform="translate(0.000000,124.000000) scale(0.100000,-0.100000)"
fill="#000000" stroke="none">
<path d="M1125 1230 c3 -5 8 -10 11 -10 2 0 4 5 4 10 0 6 -5 10 -11 10 -5 0
-7 -4 -4 -10z"/>
<path d="M1103 1143 c9 -2 23 -2 30 0 6 3 -1 5 -18 5 -16 0 -22 -2 -12 -5z"/>
<path d="M1093 1113 c9 -2 25 -2 35 0 9 3 1 5 -18 5 -19 0 -27 -2 -17 -5z"/>
<path d="M440 788 c0 -9 -7 -21 -15 -28 -8 -7 -15 -19 -15 -27 0 -15 1 -16 52
-77 27 -32 33 -47 32 -85 -1 -61 -6 -91 -15 -85 -4 2 -10 0 -13 -5 -4 -5 -1
-13 4 -16 8 -5 7 -12 -3 -23 -8 -10 -13 -28 -11 -42 4 -39 -15 -78 -42 -84
-13 -4 -30 -19 -38 -35 -9 -16 -22 -31 -30 -34 -28 -11 -5 -36 42 -46 42 -9
49 -7 70 12 13 12 37 50 54 84 30 61 30 64 12 77 -10 8 -24 12 -31 9 -8 -3
-11 0 -8 9 3 8 34 23 68 32 74 20 197 75 197 88 0 18 -28 18 -104 -2 -44 -11
-80 -20 -81 -20 -1 0 -5 29 -7 64 -4 45 -16 86 -41 138 -37 76 -77 126 -77 96z"/>
<path d="M975 761 c-78 -51 -107 -82 -95 -101 7 -12 12 -12 22 -2 9 9 8 12 -6
12 -9 0 -14 5 -11 10 4 6 11 8 16 5 5 -4 12 1 15 9 3 9 10 14 14 11 5 -3 12 1
17 8 4 8 30 30 56 50 64 49 47 47 -28 -2z"/>
<path d="M857 644 c4 -11 2 -15 -4 -11 -8 5 -9 -8 -6 -41 6 -61 16 -71 12 -12
-3 38 -1 45 14 44 23 -2 22 13 -3 26 -16 9 -19 8 -13 -6z"/>
<path d="M330 615 c0 -8 5 -15 10 -15 6 0 10 7 10 15 0 8 -4 15 -10 15 -5 0
-10 -7 -10 -15z"/>
<path d="M131 508 c-1 -14 -4 -34 -8 -44 -4 -10 -2 -15 3 -11 6 4 9 -6 6 -24
-4 -26 -1 -29 21 -29 l25 0 -18 53 c-9 28 -20 59 -23 67 -3 9 -6 4 -6 -12z"/>
<path d="M875 370 c3 -5 8 -10 11 -10 2 0 4 5 4 10 0 6 -5 10 -11 10 -5 0 -7
-4 -4 -10z"/>
<path d="M896 337 c3 -10 9 -15 12 -12 3 3 0 11 -7 18 -10 9 -11 8 -5 -6z"/>
<path d="M870 331 c0 -5 7 -15 17 -22 15 -13 15 -12 4 9 -12 23 -21 28 -21 13z"/>
<path d="M913 295 c0 -8 2 -13 5 -11 2 3 17 -9 33 -25 15 -16 35 -29 42 -29 8
0 20 -6 26 -14 13 -16 54 -29 45 -15 -3 5 -10 9 -16 9 -13 0 -89 59 -106 82
-16 22 -29 23 -29 3z"/>
</g>
</svg>
